<svg xmlns="http://www.w3.org/2000/svg" width="99.692" height="96.344" viewBox="0 0 99.692 96.344">
  <g id="symb" transform="translate(-1069.567 -895.413)">
    <g id="sun" transform="translate(369.036 -333.979) rotate(17)">
      <path id="Union_18" data-name="Union 18" d="M2.668,15.184a2.013,2.013,0,0,1-.322.026H2a2,2,0,0,1-2-2v-.346a2,2,0,0,1,2-2h.346a2.013,2.013,0,0,1,.322.026,13.037,13.037,0,1,1,0,4.294Z" transform="translate(1083.655 1010)" fill="#050a53"/>
      <path id="Union_19" data-name="Union 19" d="M2.668,15.183a2.015,2.015,0,0,1-.322.026H2a2,2,0,0,1-2-2v-.346a2,2,0,0,1,2-2h.346a2.013,2.013,0,0,1,.322.026,13.037,13.037,0,1,1,0,4.294Z" transform="translate(1145.574 1036.073) rotate(180)" fill="#050a53"/>
      <path id="Path_74" data-name="Path 74" d="M0,.175S2.416-2.031,4.724-2.031,9.234.175,9.234.175" transform="translate(1109.995 1021.232)" fill="none" stroke="#050a53" stroke-width="3"/>
    </g>
    <g id="frame" transform="matrix(0.921, -0.391, 0.391, 0.921, -274.783, 505.994)">
      <path id="Path_75" data-name="Path 75" d="M2972.119,1183.625s-3.039-1.548-5.365-.893-3.94,3.512-3.94,3.512l-5.049,19.485s-2.68,8.18,0,12.754,5.45,5.541,10.719,5.541,7.768-1.4,10.357-5.541,2.589-7.6,0-11.008-5.372-3.751-10.357-3.751a38.567,38.567,0,0,0-10.719,2" transform="translate(-1878 -275)" fill="none" stroke="#050a53" stroke-width="4.5"/>
      <path id="Path_77" data-name="Path 77" d="M2965.24,1183.625s3.039-1.548,5.365-.893,3.94,3.512,3.94,3.512l5.049,19.485s2.68,8.18,0,12.754-5.45,5.541-10.719,5.541-7.768-1.4-10.357-5.541-2.589-7.6,0-11.008,5.372-3.751,10.357-3.751a38.567,38.567,0,0,1,10.719,2" transform="translate(-1847.104 -275)" fill="none" stroke="#050a53" stroke-width="4.5"/>
      <path id="Path_76" data-name="Path 76" d="M2989.247,1207.733h-10.24" transform="translate(-1878 -275)" fill="none" stroke="#050a53" stroke-width="4.5"/>
      <path id="Path_78" data-name="Path 78" d="M2979.008,1207.733h10.24" transform="translate(-1878 -275)" fill="none" stroke="#050a53" stroke-width="4.5"/>
    </g>
  </g>
</svg>
