<?xml version="1.0" encoding="UTF-8"?>
<svg id="Layer_1" data-name="Layer 1" xmlns="http://www.w3.org/2000/svg" version="1.1" viewBox="0 0 66 63">
  <defs>
    <style>
      .cls-1, .cls-2 {
        fill: none;
        stroke: #050a53;
        stroke-width: 3px;
      }

      .cls-3 {
        fill: #050a53;
        stroke-width: 0px;
      }

      .cls-2 {
        stroke-linecap: round;
      }
    </style>
  </defs>
  <path class="cls-3" d="M19.1,4.4c-4.6,0-8,.2-10.6.7-3,.5-3.9,1.2-4.2,1.4.1.6,1.1,2.3,3.8,4,3.1,2,7.2,3.2,11.1,3.2s7.8-1.1,10.8-3.1c2.6-1.7,3.6-3.4,3.6-4-.2-.2-1.1-.9-4-1.4-2.5-.4-5.9-.7-10.4-.7ZM19.1.8c10,0,18,1,18,5.6s-8,10.9-18,10.9S.6,10.9.6,6.4,9,.8,19.1.8Z"/>
  <path class="cls-1" d="M2.8,5s.8,4.1,16,4.1,16.5-4.1,16.5-4.1"/>
  <path class="cls-2" d="M41.8,59.8l-11.8-10.8S10.4,28,9.7,24.9c-.7-3,2.9-6.5,6.5-7.7,3.7-1.2,8.8.1,15,4.5s6,6.8,11.6,13.3c5.6,6.4,6.9,9.1,12,13.3,0,0,5.7,3.1,8.2,3.5"/>
  <path class="cls-1" d="M20.1,38.3s6.4-2.8,5.5-6.1c-1-3.3-6.5-7.7-8.7-9.7-1.6-1.3-3.5-1.9-5.5-1.9"/>
</svg>