<?xml version="1.0" encoding="UTF-8"?>
<svg id="Layer_1" data-name="Layer 1" xmlns="http://www.w3.org/2000/svg" xmlns:xlink="http://www.w3.org/1999/xlink" version="1.1" viewBox="0 0 73.7 73.7">
  <defs>
    <style>
      .cls-1 {
        clip-path: url(#clippath);
      }

      .cls-2, .cls-3 {
        stroke-width: 0px;
      }

      .cls-2, .cls-4 {
        fill: none;
      }

      .cls-3 {
        fill: #050a53;
      }

      .cls-4 {
        stroke: #050a53;
        stroke-linecap: round;
        stroke-width: 3px;
      }
    </style>
    <clipPath id="clippath">
      <rect class="cls-2" x="1" y="6" width="71.8" height="61.6"/>
    </clipPath>
  </defs>
  <g class="cls-1">
    <g>
      <path class="cls-3" d="M35.8,64.7c3.2,0,6.3-.7,9.3-2,2.6-1.2,5-2.8,7.4-5,4.4-4,7.5-8.7,9.3-11.6.9-1.4,1.4-2.2,2-2.8,1.8-1.8,4.2-1.9,5.8-1.9,0,0,0,0,0,0v-8.6s0,0,0,0c-.9,0-2-.2-3.1-.7-2.1-.8-3-2.3-3.4-3.4-1.9-5.3-5.7-10.2-10.7-13.9-2.5-1.8-5.2-3.3-8-4.3-2.9-1-5.8-1.5-8.7-1.5-5.9,0-11.5,1.8-16.3,5.3-2.3,1.7-4.3,3.7-6,5.9-1.7,2.3-3.1,4.8-4,7.5l-.4,1-1,.6c-1.3.7-2.4,1.8-3.1,3.1-.8,1.3-1.2,2.8-1.2,4.4s.4,3,1.1,4.3c.7,1.3,1.8,2.3,3,3.1l1,.6.3,1.1c1.7,5.5,4.9,10.2,9.4,13.5,2.3,1.7,4.9,3,7.6,3.9,2.9.9,6.1,1.4,9.5,1.4ZM35.8,67.7c-15,0-25.6-8.7-29.4-20.9-3.3-2-5.5-5.7-5.5-9.9s2.3-8,5.8-10C10.9,14.7,22.3,6,35.8,6s25.9,9.8,30.2,21.7c1.2,3.3,6.8,1,6.8,3.6v11.5c0,2.6-4.7.5-6.8,2.6-2,2-11.4,22.3-30.2,22.3Z"/>
      <path class="cls-3" d="M35.7,15c-3.8,0-8.7,2.1-13.4,5.7-1.9,1.5-3.8,3.2-5.1,4.9-1.1,1.3-1.6,2.2-1.8,2.7.2.4.4.8.5,1.1,1,2,1.9,3.8,1.9,7.6s0,3.9-.5,5.5c-.4,1.3-.9,2.4-1.8,3.6.3,1.5,1.5,3.4,3.3,5.2,2.1,2.1,4.9,4.1,7.9,5.4,3.1,1.5,6.2,2.2,9,2.2s5.8-.6,8.6-1.7c2.6-1.1,5-2.7,7-4.7,2-2,3.6-4.4,4.7-7,1.1-2.7,1.7-5.6,1.7-8.6s-.6-5.8-1.7-8.6c-1.1-2.6-2.7-5-4.7-7-2-2-4.4-3.6-7-4.7-2.7-1.1-5.6-1.7-8.6-1.7ZM35.7,12c13.8,0,25,11.2,25,25s-11.2,25-25,25-23.4-9.6-23.3-16.9c2.1-2.4,2.4-4.1,2.4-8.1s-1.1-5-2.4-8.1c-1.4-3.1,12-16.9,23.3-16.9Z"/>
      <path class="cls-4" d="M8.7,40.1v-6.3"/>
      <path class="cls-4" d="M49.7,18.8c-1.9,2.1-4.2,3.9-6.8,5.1-4.4,2.2-7.1,1-10.4,2.8-2,1.2-3.6,3-4.5,5.2"/>
      <path class="cls-4" d="M39.9,33.1c.9-1.2,1.5-2.6,1.9-4,.3-1.6.3-3.2,0-4.8"/>
      <path class="cls-4" d="M22.3,25.7c1.5-.5,3-.6,4.6-.4,1.5.4,3,1.1,4.2,2.1"/>
      <path class="cls-4" d="M43.6,58.7s.5-1.5-2.6-4.1c-3.1-2.6-5.9-2-9.4-5.2-2.1-1.9-3.5-4.5-4-7.3"/>
      <path class="cls-4" d="M44.9,39.5c1-.3,2-.3,2.9,0,1,.2,1.9.7,2.6,1.3,2.9,2.3,5.4,7,5.4,7"/>
      <path class="cls-4" d="M49.5,30.1c.7-1.2,1.7-2.2,2.9-2.8,1.2-.6,2.6-.7,3.9-.5"/>
      <path class="cls-4" d="M35.9,51.8c.6-1.4,1-3,1.3-4.5.2-1.5.2-3.1,0-4.7"/>
    </g>
  </g>
</svg>