<?xml version="1.0" encoding="UTF-8"?>
<svg id="Layer_1" data-name="Layer 1" xmlns="http://www.w3.org/2000/svg" xmlns:xlink="http://www.w3.org/1999/xlink" version="1.1" viewBox="0 0 65 65">
  <defs>
    <style>
      .cls-1, .cls-2, .cls-3 {
        fill: none;
      }

      .cls-1, .cls-3 {
        stroke: #050a53;
        stroke-width: 3px;
      }

      .cls-4 {
        clip-path: url(#clippath);
      }

      .cls-2, .cls-5 {
        stroke-width: 0px;
      }

      .cls-5 {
        fill: #050a53;
      }

      .cls-3 {
        stroke-linecap: round;
      }
    </style>
    <clipPath id="clippath">
      <rect class="cls-2" x=".8" y=".8" width="63.2" height="63.4"/>
    </clipPath>
  </defs>
  <g class="cls-4">
    <g>
      <path class="cls-5" d="M32.4,20.2c-3.5,0-7.2.7-10.9,2.2-3.1,1.2-6.2,2.9-9.3,5-2.7,1.9-4.9,3.7-6.4,5.1,1.5,1.4,3.7,3.3,6.4,5.1,3.1,2.1,6.2,3.8,9.3,5,3.7,1.5,7.4,2.2,10.9,2.2s7.2-.7,10.9-2.2c3.1-1.2,6.2-2.9,9.3-5,2.7-1.9,4.9-3.7,6.4-5.1-1.5-1.4-3.7-3.3-6.4-5.1-3.1-2.1-6.2-3.8-9.3-5-3.7-1.5-7.4-2.2-10.9-2.2ZM32.4,16.6c17.5,0,31.6,16,31.6,16,0,0-14.2,16-31.6,16S.8,32.5.8,32.5c0,0,14.2-16,31.6-16Z"/>
      <path class="cls-1" d="M32.4,46.6c7.7,0,14-6.3,14-14s-6.3-14-14-14-14,6.3-14,14,6.3,14,14,14Z"/>
      <path class="cls-1" d="M32.4,37c2.4,0,4.4-2.1,4.4-4.7s-2-4.7-4.4-4.7-4.4,2.1-4.4,4.7,2,4.7,4.4,4.7Z"/>
      <path class="cls-3" d="M17.8,5.7l2.3,4"/>
      <path class="cls-3" d="M32.2,2.6v4.6"/>
      <path class="cls-3" d="M46.5,5.7l-2.3,4"/>
      <path class="cls-3" d="M17.8,59.2l2.3-4"/>
      <path class="cls-3" d="M32.2,62.4v-4.6"/>
      <path class="cls-3" d="M46.5,59.2l-2.3-4"/>
    </g>
  </g>
</svg>