<?xml version="1.0" encoding="UTF-8"?>
<svg id="Layer_1" data-name="Layer 1" xmlns="http://www.w3.org/2000/svg" xmlns:xlink="http://www.w3.org/1999/xlink" version="1.1" viewBox="0 0 65 65">
  <defs>
    <style>
      .cls-1 {
        clip-path: url(#clippath);
      }

      .cls-2, .cls-3 {
        stroke-width: 0px;
      }

      .cls-2, .cls-4, .cls-5 {
        fill: none;
      }

      .cls-3 {
        fill: #050a53;
      }

      .cls-4 {
        stroke-linecap: round;
        stroke-width: 2px;
      }

      .cls-4, .cls-5 {
        stroke: #050a53;
      }

      .cls-5 {
        stroke-width: 4px;
      }
    </style>
    <clipPath id="clippath">
      <rect class="cls-2" x=".8" y=".8" width="63.4" height="63.4"/>
    </clipPath>
  </defs>
  <g class="cls-1">
    <g>
      <path class="cls-5" d="M58.2,3.2H6.8c-2,0-3.6,1.6-3.6,3.6v51.4c0,2,1.6,3.6,3.6,3.6h51.4c2,0,3.6-1.6,3.6-3.6V6.8c0-2-1.6-3.6-3.6-3.6Z"/>
      <path class="cls-3" d="M18.3,55v.8h-.4v-2h1.4c.4,0,.6.2.6.6s-.2.6-.6.6h-1ZM18.3,54.1v.5h1c.1,0,.2,0,.2-.2h0c0-.2,0-.3-.2-.3h-1ZM24.4,54.1h-1.6v.5h1.2v.4h-1.2v.5h1.6v.4h-2v-2h2v.4ZM27.8,55.4c.3,0,.5-.2.6-.5h.4c0,.5-.5.9-1,.9s-1-.4-1-1,.4-1,1-1,.9.4,1,.9h-.4c0-.3-.3-.5-.6-.5s-.6.3-.6.7.3.7.6.7ZM33.2,54.1h-1.6v.5h1.2v.4h-1.2v.5h1.6v.4h-2v-2h2v.4ZM36.2,54.6h1.1v.4h-1.1v.8h-.4v-2h1.9v.4h-1.5v.5ZM41.2,53.8c.6,0,1,.4,1,1s-.4,1-1,1h-1v-2h1ZM40.6,54.1v1.3h.6c.4,0,.6-.3.6-.6s-.3-.6-.6-.6h-.6Z"/>
      <path class="cls-3" d="M20.4,47.8v-3h.6v2.5h1.8v.5h-2.4ZM25.8,46.6v1.2h-.6v-3h2.2c.5,0,.9.4.9.9s-.4.9-.9.9h-1.6ZM25.8,45.3v.7h1.6c.2,0,.3-.1.3-.3h0c0-.3-.1-.4-.3-.4h-1.6ZM34.8,45.3h-2.3v.7h1.7v.5h-1.7v.7h2.3v.5h-2.9v-3h2.9v.5ZM38.7,44.8c.9,0,1.6.6,1.6,1.5s-.7,1.5-1.6,1.5h-1.5v-3h1.5ZM37.8,45.3v1.9h.9c.5,0,.9-.4.9-1s-.4-1-.9-1h-.9Z"/>
      <path class="cls-3" d="M22.8,35.3v-.8h4.5v.8h-1.8v3.7h-.9v-3.7h-1.8ZM31,34.4c1.4,0,2.3,1,2.3,2.3s-1,2.3-2.3,2.3-2.3-1-2.3-2.3,1-2.3,2.3-2.3ZM31,38.2c.8,0,1.4-.6,1.4-1.5s-.6-1.5-1.4-1.5-1.4.6-1.4,1.5.6,1.5,1.4,1.5ZM35.1,35.3v-.8h4.2v.7l-3,3h3.1v.8h-4.4v-.7l3-3h-2.9Z"/>
      <path class="cls-3" d="M24.7,22.6h3.6v1.2h-3.6v2.7h-1.3v-6.5h6.2v1.2h-4.9v1.5ZM33.2,23.7v2.7h-1.3v-6.5h4.7c1.2,0,2,.8,2,2s-.8,1.9-2,1.9h-3.4ZM33.2,21.1v1.5h3.4c.4,0,.6-.3.6-.6v-.2c0-.4-.3-.7-.6-.7h-3.4Z"/>
      <path class="cls-3" d="M36.2,7.4h-6.2v1.8h4.6v1.4h-4.6v1.8h6.2v1.4h-7.8v-8h7.8v1.4Z"/>
      <path class="cls-4" d="M57,54.4h3.5"/>
      <path class="cls-4" d="M57,47.5h3.5"/>
      <path class="cls-4" d="M57,38.2h3.5"/>
      <path class="cls-4" d="M57,25.4h3.5"/>
      <path class="cls-4" d="M57,11.5h3.5"/>
    </g>
  </g>
</svg>