   <!-- <svg
      id="logo"
      xmlns="http://www.w3.org/2000/svg"
      viewBox="0 0 88.63 32.255"
    >
      <g transform="translate(4.24 3)">
        <path
          d="M0,21.412S20.037,0,40.075,0c5.951,0,11.9,1.889,17.843,4.8C70.247,10.83,80.149,21.412,80.149,21.412"
          fill="none"
          stroke-linecap="round"
          stroke-width="6"
        />
        <path
          d="M0,11.532c0,4.885,1.211,14.724,13.976,14.724,9.254,0,13.673-6.563,13.673-13.127S21.488,0,13.976,0"
          transform="translate(26.19)"
          fill="none"
          stroke-linecap="round"
          stroke-width="6"
        />
      </g>
    </svg> -->

    <svg id="Group_83" data-name="Group 83" xmlns="http://www.w3.org/2000/svg" xmlns:xlink="http://www.w3.org/1999/xlink" width="1660.951" height="406.156" viewBox="0 0 1660.951 406.156">
  <defs>
    <clipPath id="clip-path">
      <rect id="Rectangle_58" data-name="Rectangle 58" width="1660.951" height="406.156" fill="none"/>
    </clipPath>
  </defs>
  <g id="Group_82" data-name="Group 82" clip-path="url(#clip-path)">
    <path id="Path_79" data-name="Path 79" d="M50.318,401.861H0V290.827H53.934q20.411.3,28.926,11.827a28.157,28.157,0,0,1,5.122,16.95q0,10.167-5.122,16.347a26.45,26.45,0,0,1-8.437,6.327,24.777,24.777,0,0,1,12.842,9.791Q91.6,358.774,91.6,368.34a32.335,32.335,0,0,1-4.974,17.7A30.721,30.721,0,0,1,66.1,400.355a77.611,77.611,0,0,1-15.781,1.506m11-70.056q4.52-2.712,4.52-9.714,0-7.758-6.026-10.245a42.636,42.636,0,0,0-13.258-1.735H22.144v24.482h27.27q7.3,0,11.9-2.788M49.79,352.973H22.144v29.605h27.27q7.3,0,11.374-1.961,7.38-3.615,7.382-13.86,0-8.656-7.157-11.9-3.993-1.807-11.223-1.884"/>
    <path id="Path_80" data-name="Path 80" d="M163.315,287.44a58.044,58.044,0,0,1,19.32,3.314A51.936,51.936,0,0,1,199.4,300.32l12.354-13.406,6.4,6.1L205.5,307.1q4.217,5.2,7.682,14.462,3.393,9.646,3.39,24.635,0,26.065-14.84,42.561-14.614,16.2-38.415,16.195a61.883,61.883,0,0,1-18.344-2.827,48.456,48.456,0,0,1-17.363-9.9l-13.181,13.937-6.4-6.026,13.711-14.315a59.179,59.179,0,0,1-7.685-14.84,71.89,71.89,0,0,1-3.917-24.78q0-26.064,16.423-44.746,14.16-14.012,36.76-14.009m-28.777,72.314a66.5,66.5,0,0,0,2.712,8.963l47.683-52.5a24.4,24.4,0,0,0-8.135-6.1q-5.424-3.01-13.483-3.013-16.122,0-23.126,10.66t-7,28.437a63.3,63.3,0,0,0,1.354,13.559m17.7,23.426a29.9,29.9,0,0,0,11.074,2.109q16.116,0,23.163-12.128A52.7,52.7,0,0,0,193.52,346.2a75.62,75.62,0,0,0-.6-9.642,49.266,49.266,0,0,0-3.164-12.353l-47.306,51.974a25.208,25.208,0,0,0,9.793,7.006"/>
    <path id="Path_81" data-name="Path 81" d="M237.817,290.827h23.2V381.9h54.989v19.962h-78.19Z"/>
    <path id="Path_82" data-name="Path 82" d="M412.73,353.351H358.8V381.9h61.467v19.963h-84.14V290.827h81.428v19.662H358.8v23.578H412.73Z"/>
    <path id="Path_83" data-name="Path 83" d="M488.891,358.32H464.937v43.541H442.262V290.827h54.463q11.673.228,17.966,2.864a28.1,28.1,0,0,1,10.658,7.758,34.453,34.453,0,0,1,5.725,9.34,30.467,30.467,0,0,1,2.109,11.679,33.28,33.28,0,0,1-3.991,15.554q-4,7.643-13.183,10.809,7.683,3.089,10.885,8.776t3.2,17.361v7.457a56.811,56.811,0,0,0,.6,10.32,9.255,9.255,0,0,0,4.219,6.328v2.788H509.38q-1.056-3.69-1.507-5.95a54.494,54.494,0,0,1-.978-9.566l-.153-10.32q-.152-10.625-3.878-14.162t-13.973-3.543m14.087-20.184q6.928-3.169,6.93-12.506,0-10.092-6.7-13.559-3.768-1.958-11.3-1.961H464.937v29.834h26.29q7.832,0,11.751-1.808"/>
    <path id="Path_84" data-name="Path 84" d="M643.094,385.816a40.869,40.869,0,0,0,13.334-1.808q9.717-3.461,9.718-12.88a9.514,9.514,0,0,0-4.82-8.513q-4.824-2.934-15.143-5.195l-11.751-2.639q-17.327-3.914-23.954-8.513-11.225-7.677-11.223-24.028A32.1,32.1,0,0,1,610.1,297.456q10.846-9.862,31.862-9.867,17.55,0,29.942,9.3T684.9,323.9H662.6q-.6-10.017-8.738-14.238a29.322,29.322,0,0,0-13.484-2.788q-8.965,0-14.31,3.616a11.511,11.511,0,0,0-5.349,10.1A9.545,9.545,0,0,0,626,329.471q3.389,1.962,14.463,4.6l19.133,4.6q12.578,3.015,18.982,8.059,9.944,7.838,9.943,22.675a32,32,0,0,1-11.638,25.271Q665.242,404.725,644,404.722q-21.695,0-34.122-9.9t-12.428-27.228h22.144q1.058,7.608,4.145,11.373,5.649,6.854,19.357,6.854"/>
    <path id="Path_85" data-name="Path 85" d="M798.726,290.827l-37.135,69.3v41.733h-23.2V360.128l-38.419-69.3h27.345l23.05,48.362,22.072-48.362Z"/>
    <path id="Path_86" data-name="Path 86" d="M905.169,401.861h-23.2l-45.345-78.867v78.867H815V290.827h24.334l44.216,77.512V290.827h21.618Z"/>
    <path id="Path_87" data-name="Path 87" d="M970.48,385.816a40.882,40.882,0,0,0,13.334-1.808q9.72-3.461,9.718-12.88a9.513,9.513,0,0,0-4.821-8.513q-4.823-2.934-15.142-5.195l-11.751-2.639q-17.328-3.914-23.952-8.513-11.23-7.677-11.225-24.028a32.1,32.1,0,0,1,10.848-24.784q10.846-9.862,31.862-9.867,17.553,0,29.944,9.3t12.991,27.007h-22.3q-.6-10.017-8.734-14.238a29.332,29.332,0,0,0-13.487-2.788q-8.964,0-14.31,3.616a11.516,11.516,0,0,0-5.347,10.1,9.544,9.544,0,0,0,5.271,8.886q3.387,1.962,14.463,4.6l19.131,4.6q12.58,3.015,18.986,8.059,9.944,7.838,9.939,22.675a32,32,0,0,1-11.636,25.271q-11.637,10.057-32.881,10.054-21.694,0-34.12-9.9t-12.43-27.228h22.144q1.053,7.608,4.146,11.373,5.646,6.854,19.356,6.854"/>
    <path id="Path_88" data-name="Path 88" d="M1076.77,385.816a40.881,40.881,0,0,0,13.334-1.808q9.72-3.461,9.718-12.88a9.513,9.513,0,0,0-4.821-8.513q-4.822-2.934-15.142-5.195l-11.751-2.639q-17.328-3.914-23.952-8.513-11.231-7.677-11.225-24.028a32.1,32.1,0,0,1,10.848-24.784q10.846-9.862,31.862-9.867,17.553,0,29.944,9.3t12.991,27.007h-22.3q-.6-10.017-8.734-14.238a29.332,29.332,0,0,0-13.487-2.788q-8.964,0-14.31,3.616a11.516,11.516,0,0,0-5.347,10.1,9.544,9.544,0,0,0,5.271,8.886q3.387,1.962,14.463,4.6l19.131,4.6q12.58,3.015,18.986,8.059,9.944,7.838,9.939,22.675a32,32,0,0,1-11.636,25.271q-11.637,10.057-32.881,10.054-21.694,0-34.12-9.9t-12.43-27.228h22.144q1.053,7.608,4.146,11.373,5.646,6.854,19.356,6.854"/>
    <path id="Path_89" data-name="Path 89" d="M1220.04,353.351h-53.931V381.9h61.467v19.963h-84.141V290.827h81.426v19.662h-58.752v23.578h53.931Z"/>
    <path id="Path_90" data-name="Path 90" d="M1338.836,401.861h-23.2l-45.349-78.867v78.867h-21.618V290.827H1273l44.216,77.512V290.827h21.618Z"/>
    <path id="Path_91" data-name="Path 91" d="M1444.523,290.827v19.661h-33.216v91.373h-23.354V310.488h-33.369V290.827Z"/>
    <path id="Path_92" data-name="Path 92" d="M1538.76,353.351h-53.931V381.9H1546.3v19.963h-84.141V290.827h81.426v19.662h-58.752v23.578h53.931Z"/>
    <path id="Path_93" data-name="Path 93" d="M1614.923,358.32h-23.952v43.541H1568.3V290.827h54.461q11.676.228,17.968,2.864a28.1,28.1,0,0,1,10.66,7.758,34.34,34.34,0,0,1,5.721,9.34,30.427,30.427,0,0,1,2.113,11.679,33.306,33.306,0,0,1-3.993,15.554q-3.993,7.643-13.185,10.809,7.689,3.089,10.885,8.776t3.2,17.361v7.457a56.8,56.8,0,0,0,.6,10.32,9.254,9.254,0,0,0,4.219,6.328v2.788h-25.539q-1.053-3.69-1.5-5.95a54.684,54.684,0,0,1-.98-9.566l-.153-10.32q-.148-10.625-3.879-14.162t-13.974-3.543m14.089-20.184q6.929-3.169,6.93-12.506,0-10.092-6.7-13.559-3.77-1.958-11.3-1.961h-26.965v29.834h26.29q7.832,0,11.751-1.808"/>
    <path id="Path_94" data-name="Path 94" d="M1084.211,127.827C1036.7,70.193,974.4,29.44,904.066,9.969a276.769,276.769,0,0,0-147.178,0c-70.34,19.471-132.635,60.224-180.15,117.858a17.575,17.575,0,0,0,27.122,22.358c42.9-52.031,99.058-88.806,162.409-106.339a240.467,240.467,0,0,1,98.762-6.208A66.048,66.048,0,1,1,764.389,93.863a17.575,17.575,0,1,0-35.15,0A101.238,101.238,0,1,0,923.2,53.277c51.677,19.758,97.558,52.829,133.9,96.908a17.573,17.573,0,0,0,27.118-22.358"/>
  </g>
</svg>
