<?xml version="1.0" encoding="UTF-8"?>
<svg xmlns="http://www.w3.org/2000/svg" version="1.1" viewBox="0 0 2000 500">
  <defs>
    <style>
      .cls-1 {
        fill: #f6c649;
      }

      .cls-2 {
        fill: #0f4996;
      }

      .cls-3 {
        fill: #127cc4;
      }
    </style>
  </defs>
  <!-- Generator: Adobe Illustrator 28.6.0, SVG Export Plug-In . SVG Version: 1.2.0 Build 709)  -->
  <g>
    <g id="Layer_1">
      <g>
        <circle class="cls-1" cx="66.4" cy="250" r="83.5"/>
        <circle cx="483.7" cy="250" r="83.5"/>
        <circle class="cls-2" cx="901" cy="250" r="83.5"/>
        <path class="cls-2" d="M233.3,250c0,46.1-37.4,83.5-83.5,83.5v-166.9c46.1,0,83.5,37.4,83.5,83.5Z"/>
        <path class="cls-2" d="M316.8,250c0,46.1-37.4,83.5-83.5,83.5v-166.9c46.1,0,83.5,37.4,83.5,83.5Z"/>
        <path class="cls-3" d="M400.2,250c0,46.1-37.4,83.5-83.5,83.5v-166.9c46.1,0,83.5,37.4,83.5,83.5Z"/>
        <path class="cls-3" d="M567.2,250c0,46.1,37.4,83.5,83.5,83.5v-166.9c-46.1,0-83.5,37.4-83.5,83.5Z"/>
        <path class="cls-3" d="M650.6,250c0,46.1,37.4,83.5,83.5,83.5v-166.9c-46.1,0-83.5,37.4-83.5,83.5Z"/>
        <path class="cls-3" d="M734.1,250c0,46.1,37.4,83.5,83.5,83.5v-166.9c-46.1,0-83.5,37.4-83.5,83.5Z"/>
        <circle class="cls-1" cx="1568.7" cy="250" r="83.5"/>
        <path class="cls-1" d="M1819,250c0-46.1,37.4-83.5,83.5-83.5v166.9c-46.1,0-83.5-37.4-83.5-83.5Z"/>
        <path class="cls-1" d="M1735.6,250c0-46.1,37.4-83.5,83.5-83.5v166.9c-46.1,0-83.5-37.4-83.5-83.5Z"/>
        <path d="M1735.6,250c0-46.1-37.4-83.5-83.5-83.5v166.9c46.1,0,83.5-37.4,83.5-83.5Z"/>
        <path d="M1151.4,250c0-46.1-37.4-83.5-83.5-83.5v166.9c46.1,0,83.5-37.4,83.5-83.5Z"/>
        <path d="M1067.9,250c0-46.1-37.4-83.5-83.5-83.5v166.9c46.1,0,83.5-37.4,83.5-83.5Z"/>
        <circle class="cls-2" cx="1986" cy="250" r="83.5"/>
        <path class="cls-2" d="M1401.7,250c0-46.1-37.4-83.5-83.5-83.5v166.9c46.1,0,83.5-37.4,83.5-83.5Z"/>
        <circle class="cls-3" cx="1234.8" cy="250" r="83.5"/>
        <path class="cls-3" d="M1401.7,250c0-46.1,37.4-83.5,83.5-83.5v166.9c-46.1,0-83.5-37.4-83.5-83.5Z"/>
        <circle class="cls-1" cx="2152.9" cy="250" r="83.5"/>
        <circle cx="2570.2" cy="250" r="83.5"/>
        <circle class="cls-2" cx="2987.4" cy="250" r="83.5"/>
        <path class="cls-2" d="M2319.8,250c0,46.1-37.4,83.5-83.5,83.5v-166.9c46.1,0,83.5,37.4,83.5,83.5Z"/>
        <path class="cls-2" d="M2403.2,250c0,46.1-37.4,83.5-83.5,83.5v-166.9c46.1,0,83.5,37.4,83.5,83.5Z"/>
        <path class="cls-3" d="M2486.7,250c0,46.1-37.4,83.5-83.5,83.5v-166.9c46.1,0,83.5,37.4,83.5,83.5Z"/>
        <path class="cls-3" d="M2653.6,250c0,46.1,37.4,83.5,83.5,83.5v-166.9c-46.1,0-83.5,37.4-83.5,83.5Z"/>
        <path class="cls-3" d="M2737.1,250c0,46.1,37.4,83.5,83.5,83.5v-166.9c-46.1,0-83.5,37.4-83.5,83.5Z"/>
        <path class="cls-3" d="M2820.5,250c0,46.1,37.4,83.5,83.5,83.5v-166.9c-46.1,0-83.5,37.4-83.5,83.5Z"/>
        <circle class="cls-1" cx="3655.1" cy="250" r="83.5"/>
        <path class="cls-1" d="M3905.5,250c0-46.1,37.4-83.5,83.5-83.5v166.9c-46.1,0-83.5-37.4-83.5-83.5Z"/>
        <path class="cls-1" d="M3822,250c0-46.1,37.4-83.5,83.5-83.5v166.9c-46.1,0-83.5-37.4-83.5-83.5Z"/>
        <path d="M3822,250c0-46.1-37.4-83.5-83.5-83.5v166.9c46.1,0,83.5-37.4,83.5-83.5Z"/>
        <path d="M3237.8,250c0-46.1-37.4-83.5-83.5-83.5v166.9c46.1,0,83.5-37.4,83.5-83.5Z"/>
        <path d="M3154.4,250c0-46.1-37.4-83.5-83.5-83.5v166.9c46.1,0,83.5-37.4,83.5-83.5Z"/>
        <circle class="cls-2" cx="4072.4" cy="250" r="83.5"/>
        <path class="cls-2" d="M3488.2,250c0-46.1-37.4-83.5-83.5-83.5v166.9c46.1,0,83.5-37.4,83.5-83.5Z"/>
        <circle class="cls-3" cx="3321.3" cy="250" r="83.5"/>
        <path class="cls-3" d="M3488.2,250c0-46.1,37.4-83.5,83.5-83.5v166.9c-46.1,0-83.5-37.4-83.5-83.5Z"/>
      </g>
    </g>
  </g>
</svg>